<svg width="58" height="57" viewBox="0 0 58 57" fill="none" xmlns="http://www.w3.org/2000/svg">
<path d="M28.9999 51.6562C39.9271 47.9543 47.7151 39.3501 48.9374 28.3944C49.2762 23.6386 49.2474 18.8643 48.8511 14.1127C48.7987 13.3638 48.4642 12.6609 47.9128 12.1413C47.3615 11.6217 46.6329 11.3228 45.8693 11.3027C40.9259 11.1531 35.181 10.3436 30.7409 6.04533C30.2771 5.5958 29.6518 5.34379 29.0003 5.34379C28.3489 5.34379 27.7236 5.5958 27.2597 6.04533C22.8192 10.3431 17.0743 11.1531 12.1315 11.3027C11.3679 11.3228 10.6393 11.6217 10.0879 12.1413C9.53659 12.6609 9.20208 13.3638 9.14972 14.1127C8.75305 18.8643 8.72385 23.6385 9.06235 28.3944C10.2846 39.3501 18.0727 47.9543 28.9999 51.6562Z" stroke="#2C5516" stroke-linecap="round" stroke-linejoin="round"/>
<g clip-path="url(#clip0_3378_140)">
<path d="M34.3792 25.9446H33.7815V23.5547C33.7815 20.6808 31.7973 18.4293 28.9781 18.4293C26.1475 18.4293 24.2188 20.7284 24.2188 23.5547V25.9446H23.6211C22.3027 25.9446 21.2305 27.0681 21.2305 28.4496V35.9649C21.2305 37.3464 22.3027 38.47 23.6211 38.47H34.3792C35.6977 38.47 36.7699 37.3464 36.7699 35.9649V28.4496C36.7699 27.0681 35.6977 25.9446 34.3792 25.9446ZM25.4142 23.5547C25.4142 21.4198 26.8067 19.6819 28.9781 19.6819C31.1273 19.6819 32.5862 21.3828 32.5862 23.5547V25.9446H25.4142V23.5547ZM35.5746 35.9649C35.5746 36.655 35.0378 37.2174 34.3792 37.2174H23.6211C22.9619 37.2174 22.4258 36.655 22.4258 35.9649V28.4496C22.4258 27.7595 22.9619 27.1971 23.6211 27.1971H34.3792C35.0378 27.1971 35.5746 27.7595 35.5746 28.4496V35.9649ZM29.0002 29.7022C28.3404 29.7022 27.8048 30.2627 27.8048 30.9547C27.8048 31.4169 28.0469 31.8165 28.4025 32.0338V34.0861C28.4025 34.4318 28.6703 34.7123 29.0002 34.7123C29.3301 34.7123 29.5979 34.4318 29.5979 34.0861V32.0338C29.9535 31.8171 30.1955 31.4169 30.1955 30.9547C30.1955 30.2627 29.6606 29.7022 29.0002 29.7022Z" fill="#295115"/>
</g>
<defs>
<clipPath id="clip0_3378_140">
<rect width="19.1254" height="20.0406" fill="white" transform="translate(19.4375 18.4293)"/>
</clipPath>
</defs>
</svg>
